<?xml version="1.0" standalone="no"?><!DOCTYPE svg PUBLIC "-//W3C//DTD SVG 1.1//EN" "http://www.w3.org/Graphics/SVG/1.1/DTD/svg11.dtd"><svg t="1586177571239" class="icon" viewBox="0 0 1024 1024" version="1.1" xmlns="http://www.w3.org/2000/svg" p-id="36503" xmlns:xlink="http://www.w3.org/1999/xlink" width="400" height="400"><defs><style type="text/css"></style></defs><path d="M886.315739 249.991183a23.425235 23.425235 0 0 0-24.401286 25.377338v649.074229a49.778625 49.778625 0 0 1-50.754677 49.778625H134.756106a49.778625 49.778625 0 0 1-49.778625-49.778625V174.83522A49.778625 49.778625 0 0 1 134.756106 125.056595h576.84642A24.401287 24.401287 0 0 0 736.979864 97.727154a23.425235 23.425235 0 0 0-25.377338-22.449184H134.756106a97.605147 97.605147 0 0 0-97.605147 97.605147v751.559633a97.605147 97.605147 0 0 0 97.605147 97.605147h676.40367a97.605147 97.605147 0 0 0 97.605147-97.605147V275.368521a23.425235 23.425235 0 0 0-25.377338-25.377338z" p-id="36504" fill="#2c2c2c"></path><path d="M979.040629 7.930418a23.425235 23.425235 0 0 0-35.137853 0L572.027165 379.806029a23.425235 23.425235 0 0 0 0 35.137853 28.305493 28.305493 0 0 0 17.568927 7.808412 30.257596 30.257596 0 0 0 17.568926-7.808412L979.040629 45.020374a27.329441 27.329441 0 0 0 0-37.089956zM437.332062 374.925771H211.864173a23.425235 23.425235 0 0 0-24.401287 25.377339 23.425235 23.425235 0 0 0 24.401287 24.401287H437.332062a23.425235 23.425235 0 0 0 24.401287-24.401287 23.425235 23.425235 0 0 0-24.401287-25.377339z m299.647802 200.090552H211.864173a23.425235 23.425235 0 0 0-24.401287 24.401287 23.425235 23.425235 0 0 0 24.401287 25.377338h525.115691a23.425235 23.425235 0 0 0 24.401287-25.377338 23.425235 23.425235 0 0 0-24.401287-24.401287z m0 195.210294H211.864173a23.425235 23.425235 0 0 0-24.401287 24.401287 23.425235 23.425235 0 0 0 24.401287 25.377338h525.115691a23.425235 23.425235 0 0 0 24.401287-25.377338 23.425235 23.425235 0 0 0-24.401287-24.401287z" p-id="36505" fill="#2c2c2c"></path></svg>