<?xml version="1.0" standalone="no"?><!DOCTYPE svg PUBLIC "-//W3C//DTD SVG 1.1//EN" "http://www.w3.org/Graphics/SVG/1.1/DTD/svg11.dtd"><svg t="1584691038732" class="icon" viewBox="0 0 1024 1024" version="1.1" xmlns="http://www.w3.org/2000/svg" p-id="6065" width="128" height="128" xmlns:xlink="http://www.w3.org/1999/xlink"><defs><style type="text/css"></style></defs><path d="M1002.496 292.181333c0.512 0.170667 0.853333 0.512 1.365333 0.682667 1.194667 0.682667 2.56 1.194667 3.754667 2.048 0.853333 0.682667 1.706667 1.365333 2.56 2.218667 0.512 0.512 1.194667 0.853333 1.706667 1.365333 0.853333 0.853333 1.536 1.877333 2.389333 2.901333 0.341333 0.512 0.853333 1.024 1.194667 1.536 0.682667 1.024 1.194667 2.218667 1.877333 3.242667 0.341333 0.512 0.512 1.024 0.853333 1.536 0.512 1.365333 1.024 2.901333 1.365334 4.266667 0 0.341333 0.170667 0.682667 0.341333 1.024 1.194667 5.802667 0.512 11.776-1.706667 17.237333-0.682667 1.536-1.365333 2.901333-2.389333 4.266667-0.170667 0.170667-0.170667 0.341333-0.341333 0.512-0.853333 1.365333-1.877333 2.56-3.072 3.754666l-0.512 0.512c-1.024 1.024-2.218667 2.048-3.413334 2.901334-0.341333 0.170667-0.512 0.512-0.853333 0.682666-1.194667 0.682667-2.389333 1.365333-3.584 1.877334-0.512 0.170667-0.853333 0.512-1.365333 0.682666-1.365333 0.512-2.730667 1.024-4.096 1.194667-0.512 0.170667-0.853333 0.341333-1.365334 0.341333-2.048 0.341333-4.096 0.682667-6.144 0.512h-43.178666v14.506667c0 24.064-19.456 43.52-43.52 43.52H119.978667c-24.064 0-43.52-19.456-43.52-43.52v-14.506667H33.450667c-2.218667 0-4.266667-0.170667-6.314667-0.512l-1.536-0.512c-1.194667-0.341333-2.56-0.682667-3.754667-1.194666-1.024-0.341333-1.877333-1.024-2.901333-1.536-0.682667-0.341333-1.365333-0.682667-1.877333-1.024-1.194667-0.853333-2.389333-1.706667-3.584-2.730667-0.170667-0.170667-0.512-0.341333-0.682667-0.682667-5.802667-5.461333-9.045333-12.970667-9.045333-20.992 0-11.946667 7.509333-22.869333 18.773333-27.136L500.053333 79.189333c3.754667-1.536 7.68-2.389333 11.776-2.389333 4.096 0 8.021333 0.682667 11.776 2.389333l478.890667 212.992z m-112.981333 13.312L511.829333 137.386667 134.485333 305.493333v27.989334c0 8.021333 6.485333 14.506667 14.506667 14.506666h726.016c8.021333 0 14.506667-6.485333 14.506667-14.506666V305.493333z m-856.746667 594.432h43.52v-79.872c0-24.064 19.456-43.52 43.52-43.52H199.68V427.861333h58.026667v348.501334h130.730666V427.861333h58.026667v348.501334h130.730667V427.861333h58.026666v348.501334h130.730667V427.861333h58.026667v348.501334h79.872c24.064 0 43.52 19.456 43.52 43.52v79.872h43.52c16.042667 0 29.013333 12.970667 29.013333 29.013333v29.013333H3.754667v-29.013333c0-15.872 12.970667-28.842667 29.013333-28.842667z m101.717333 0h755.2v-50.858666c0-8.021333-6.485333-14.506667-14.506666-14.506667H148.992c-8.021333 0-14.506667 6.485333-14.506667 14.506667v50.858666z" p-id="6066" fill="#2c2c2c"></path></svg>