<?xml version="1.0" standalone="no"?><!DOCTYPE svg PUBLIC "-//W3C//DTD SVG 1.1//EN" "http://www.w3.org/Graphics/SVG/1.1/DTD/svg11.dtd"><svg t="1586177119693" class="icon" viewBox="0 0 1024 1024" version="1.1" xmlns="http://www.w3.org/2000/svg" p-id="18925" xmlns:xlink="http://www.w3.org/1999/xlink" width="400" height="400"><defs><style type="text/css"></style></defs><path d="M874.957893 427.71344c-38.038223 57.175466-84.207806 96.552509-134.09852 115.374735 8.662949-14.215112 17.05026-29.335897 25.043799-45.322976 50.20573-100.450836 82.337397-226.988964 93.166084-363.883253h104.112901c-4.725245 111.358277-35.636224 214.762392-88.224264 293.831494zM580.811382 624.578966a29.1587 29.1587 0 0 0-3.898327 1.968852c-21.204538 10.533359-42.980042 16.006768-65.011498 16.006768-22.011767 0-43.787272-5.473409-64.97212-16.006768a29.82811 29.82811 0 0 0-3.937705-1.988541c-23.527783-12.443146-46.268025-31.206306-67.807267-55.895712a30.162815 30.162815 0 0 0-3.819574-4.469295c-21.362046-25.358816-41.444338-56.545434-59.813728-93.264526-55.12786-110.25572-86.944511-255.182926-90.567198-410.938819h581.854874c-3.642376 155.736205-35.478716 300.702788-90.586887 410.938819-18.369391 36.719092-38.471371 67.925399-59.813729 93.264526a29.414651 29.414651 0 0 0-3.839261 4.488983c-21.519554 24.669717-44.279485 43.452567-67.78758 55.895713z m-18.585964 178.594578h-100.647721v-107.243377c16.479292 4.331475 33.273601 6.595655 50.32386 6.595655 17.030571 0 33.82488-2.244491 50.323861-6.595655v107.243377z m160.638647 110.314785v50.323861h-421.925015v-50.323861a50.402615 50.402615 0 0 1 50.323861-50.323861H672.559892a50.402615 50.402615 0 0 1 50.323861 50.323861zM148.845222 427.71344C96.237493 348.644338 65.326514 245.240223 60.620958 133.881946h104.112901c10.828687 136.89429 42.940665 263.432417 93.166083 363.883253 7.99354 15.987079 16.361161 31.107864 25.0438 45.342665-49.890713-18.841915-96.060296-58.218958-134.09852-115.394424z m844.972275-353.802731h-131.381504c0.472525-14.569506 0.728475-29.198077 0.728475-43.905402C863.164468 13.407883 849.756585 0 833.17885 0H190.624265C174.066218 0 160.658335 13.427572 160.658335 29.985618c0 14.727014 0.255951 29.355585 0.728475 43.905403H29.985618C13.427572 73.891021 0 87.318593 0 103.896328c0 134.393847 35.124322 261.187925 98.895443 357.031647 63.042646 94.760854 147.033878 149.101173 237.738897 154.397386 20.574505 22.385849 42.310633 40.61742 64.952432 54.537204v133.310979h-50.323861a110.452605 110.452605 0 0 0-110.314786 110.314785v50.323861h-2.12636a30.005307 30.005307 0 0 0 0 59.990925h546.159585a29.985618 29.985618 0 1 0 0-59.990925h-2.126361v-50.323861a110.452605 110.452605 0 0 0-110.314785-110.314785h-50.323861v-133.291291c22.6418-13.919785 44.397616-32.171044 64.972121-54.556892 90.68533-5.296212 174.676562-59.65622 237.719208-154.397386C988.698481 365.084253 1023.803115 238.290175 1023.803115 103.896328c0-16.577735-13.427572-30.005307-29.985618-30.005307z" p-id="18926"></path></svg>