<?xml version="1.0" standalone="no"?><!DOCTYPE svg PUBLIC "-//W3C//DTD SVG 1.1//EN" "http://www.w3.org/Graphics/SVG/1.1/DTD/svg11.dtd"><svg t="1584692054505" class="icon" viewBox="0 0 1024 1024" version="1.1" xmlns="http://www.w3.org/2000/svg" p-id="1967" xmlns:xlink="http://www.w3.org/1999/xlink" width="128" height="128"><defs><style type="text/css"></style></defs><path d="M161.916343 402.724571a136.411429 136.411429 0 0 1-30.500572-48.347428 257.609143 257.609143 0 0 1-14.628571-98.450286h49.883429v-63.926857H116.640914A56.539429 56.539429 0 0 0 52.640914 256a267.776 267.776 0 0 0 64 192 246.857143 246.857143 0 0 0 107.446857 67.218286l-13.238857-74.24a220.379429 220.379429 0 0 1-48.932571-38.180572z m0 0a136.411429 136.411429 0 0 1-30.500572-48.347428 257.609143 257.609143 0 0 1-14.628571-98.450286h49.883429v-63.926857H116.640914A56.539429 56.539429 0 0 0 52.640914 256a267.776 267.776 0 0 0 64 192 246.857143 246.857143 0 0 0 107.446857 67.218286l-13.238857-74.24a220.379429 220.379429 0 0 1-48.932571-38.180572z m700.416 0a136.630857 136.630857 0 0 0 30.500571-48.347428 257.609143 257.609143 0 0 0 14.628572-98.450286h-49.883429v-63.926857h49.810286a56.539429 56.539429 0 0 1 64 64 267.776 267.776 0 0 1-64 192 246.857143 246.857143 0 0 1-107.446857 67.218286l13.238857-74.24a223.158857 223.158857 0 0 0 48.932571-38.180572z m0 0a136.630857 136.630857 0 0 0 30.500571-48.347428 257.609143 257.609143 0 0 0 14.628572-98.450286h-49.883429v-63.926857h49.810286a56.539429 56.539429 0 0 1 64 64 267.776 267.776 0 0 1-64 192 246.857143 246.857143 0 0 1-107.446857 67.218286l13.238857-74.24a223.158857 223.158857 0 0 0 48.932571-38.180572z" fill="#2c2c2c" p-id="1968"></path><path d="M480.160914 768h64v192h-64z" fill="#2c2c2c" p-id="1969"></path><path d="M224.599771 438.125714v3.657143c11.337143 185.197714 138.825143 326.217143 287.524572 326.217143s276.187429-141.019429 287.524571-329.874286a65.243429 65.243429 0 0 0 0.438857-7.314285V128a64 64 0 0 0-64-64H288.160914a64 64 0 0 0-64 64v302.518857a61.805714 61.805714 0 0 0 0.438857 7.68z m-63.561142 7.314286a129.316571 129.316571 0 0 1-0.877715-15.140571V128A128 128 0 0 1 288.160914 0h448a128 128 0 0 1 128 128v302.518857a130.267429 130.267429 0 0 1-0.877714 15.140572c-12.8 215.917714-165.083429 386.340571-351.085714 386.340571s-338.285714-170.422857-351.158857-386.340571z m223.085714 514.340571h256a32.036571 32.036571 0 0 1 0 64h-256a32.036571 32.036571 0 0 1 0-64z" fill="#2c2c2c" p-id="1970"></path><path d="M612.183771 584.996571a33.865143 33.865143 0 0 1-16.018285-3.949714L514.684343 538.331429l-81.261714 42.934857a34.742857 34.742857 0 0 1-16.237715 3.949714 34.157714 34.157714 0 0 1-19.090285-5.705143 31.817143 31.817143 0 0 1-13.824-31.744l15.798857-92.672-68.534857-66.998857a30.793143 30.793143 0 0 1-7.899429-32.841143 32.768 32.768 0 0 1 26.697143-21.430857l93.330286-13.604571 40.521142-82.358858a34.011429 34.011429 0 0 1 60.489143 0l40.521143 82.358858 93.330286 13.604571a32.841143 32.841143 0 0 1 26.697143 21.430857 31.158857 31.158857 0 0 1-7.899429 33.060572l-68.534857 66.779428 15.798857 92.672a31.817143 31.817143 0 0 1-13.824 31.744 33.792 33.792 0 0 1-18.578286 5.485714z m-97.499428-77.531428a24.649143 24.649143 0 0 1 11.190857 2.633143l84.553143 44.470857a4.096 4.096 0 0 0 1.755428 0.438857 3.730286 3.730286 0 0 0 2.194286-0.658286 2.633143 2.633143 0 0 0 1.097143-1.974857L599.018057 456.192a23.332571 23.332571 0 0 1 6.582857-20.406857l70.948572-69.193143a2.048 2.048 0 0 0 0.658285-1.974857 3.510857 3.510857 0 0 0-2.633142-1.755429l-96.841143-14.043428a23.186286 23.186286 0 0 1-17.773715-12.946286l-42.057142-85.430857a3.510857 3.510857 0 0 0-3.072-1.536 3.218286 3.218286 0 0 0-3.072 1.755428l-42.057143 85.430858a24.064 24.064 0 0 1-17.773715 12.946285l-97.28 14.043429a3.510857 3.510857 0 0 0-2.633142 1.755428 1.901714 1.901714 0 0 0 0.658285 1.974858l70.948572 69.412571a22.747429 22.747429 0 0 1 6.582857 20.406857l-16.457143 95.963429a2.194286 2.194286 0 0 0 1.097143 2.194285 3.730286 3.730286 0 0 0 2.194286 0.658286 6.363429 6.363429 0 0 0 1.974857-0.438857l84.333714-44.470857a22.528 22.528 0 0 1 11.190857-3.072z" fill="#2c2c2c" p-id="1971"></path></svg>