<?xml version="1.0" standalone="no"?><!DOCTYPE svg PUBLIC "-//W3C//DTD SVG 1.1//EN" "http://www.w3.org/Graphics/SVG/1.1/DTD/svg11.dtd"><svg t="1585889659436" class="icon" viewBox="0 0 1024 1024" version="1.1" xmlns="http://www.w3.org/2000/svg" p-id="4757" width="400" height="400" xmlns:xlink="http://www.w3.org/1999/xlink"><defs><style type="text/css"></style></defs><path d="M413.866667 652.8c-8.533333 8.533333-21.333333 8.533333-29.866667 0L264.533333 512c-76.8 38.4-102.4 157.866667-128 260.266667-21.333333 64 25.6 123.733333 93.866667 123.733333h332.8c68.266667 0 115.2-59.733333 98.133333-123.733333-29.866667-102.4-51.2-221.866667-128-260.266667l-119.466666 140.8z" fill="#2c2c2c" p-id="4758"></path><path d="M396.8 320m-192 0a192 192 0 1 0 384 0 192 192 0 1 0-384 0Z" fill="#2c2c2c" p-id="4759"></path><path d="M853.333333 384h-170.666666c-25.6 0-42.666667-17.066667-42.666667-42.666667s17.066667-42.666667 42.666667-42.666666h170.666666c25.6 0 42.666667 17.066667 42.666667 42.666666s-17.066667 42.666667-42.666667 42.666667zM853.333333 554.666667h-170.666666c-25.6 0-42.666667-17.066667-42.666667-42.666667s17.066667-42.666667 42.666667-42.666667h170.666666c25.6 0 42.666667 17.066667 42.666667 42.666667s-17.066667 42.666667-42.666667 42.666667zM853.333333 725.333333h-128c-25.6 0-42.666667-17.066667-42.666666-42.666666s17.066667-42.666667 42.666666-42.666667h128c25.6 0 42.666667 17.066667 42.666667 42.666667s-17.066667 42.666667-42.666667 42.666666z" fill="#2c2c2c" p-id="4760"></path></svg>