<?xml version="1.0" standalone="no"?><!DOCTYPE svg PUBLIC "-//W3C//DTD SVG 1.1//EN" "http://www.w3.org/Graphics/SVG/1.1/DTD/svg11.dtd"><svg t="1586176913988" class="icon" viewBox="0 0 1024 1024" version="1.1" xmlns="http://www.w3.org/2000/svg" p-id="13830" xmlns:xlink="http://www.w3.org/1999/xlink" width="400" height="400"><defs><style type="text/css"></style></defs><path d="M940.8 1024H83.2C38.4 1024 0 985.6 0 940.8V390.4c0-44.8 38.4-83.2 83.2-83.2h857.6c44.8 0 83.2 38.4 83.2 83.2v550.4c0 44.8-38.4 83.2-83.2 83.2zM83.2 352c-19.2 0-38.4 19.2-38.4 38.4v550.4c0 19.2 19.2 38.4 38.4 38.4h857.6c19.2 0 38.4-19.2 38.4-38.4V390.4c0-19.2-19.2-38.4-38.4-38.4H83.2zM147.2 153.6h736v44.8H147.2zM236.8 0h550.4v44.8H236.8z" fill="#2c2c2c" p-id="13831"></path></svg>