<?xml version="1.0" standalone="no"?><!DOCTYPE svg PUBLIC "-//W3C//DTD SVG 1.1//EN"
        "http://www.w3.org/Graphics/SVG/1.1/DTD/svg11.dtd">
<svg t="1586678174131" class="icon" viewBox="0 0 1024 1024" version="1.1" xmlns="http://www.w3.org/2000/svg" p-id="2161"
     xmlns:xlink="http://www.w3.org/1999/xlink" width="400" height="400">
    <defs>
        <style type="text/css"></style>
    </defs>
    <path d="M239.9 339c0-152 122.1-273.7 272.2-273.7s272.2 121.4 272.2 271.5c0 114.8-72.3 217.2-180.1 256C582.4 597.3 484.1 641 484.1 868l50.5 0c0-201 79.6-226.2 79.7-226.2 1.7-0.2 3.3-0.7 4.9-1.2 129-45.3 215.7-167.7 215.7-304.5 0-177.9-144.8-321.2-322.7-321.2C334.2 14.8 189.4 162 189.4 339L239.9 339z"
          p-id="2162"></path>
    <path d="M517.4 933.5c-20.9 0-37.8 16.9-37.8 37.8s17 37.8 37.8 37.8c20.9 0 37.8-16.9 37.8-37.8S538.3 933.5 517.4 933.5z"
          p-id="2163"></path>
</svg>