<?xml version="1.0" standalone="no"?><!DOCTYPE svg PUBLIC "-//W3C//DTD SVG 1.1//EN" "http://www.w3.org/Graphics/SVG/1.1/DTD/svg11.dtd"><svg t="1586177175097" class="icon" viewBox="0 0 1024 1024" version="1.1" xmlns="http://www.w3.org/2000/svg" p-id="19681" xmlns:xlink="http://www.w3.org/1999/xlink" width="400" height="400"><defs><style type="text/css"></style></defs><path d="M168.25 431.08l270.47 185.27c43.67 29.91 101.23 29.94 144.92 0.05l270.92-185.28a96.283 96.283 0 0 0 25.16-25.19c29.95-43.89 18.65-103.76-25.24-133.71L583.52 87.33c-43.64-29.78-101.08-29.76-144.7 0.05l-270.5 184.88a96.282 96.282 0 0 0-25.09 25.06c-30.02 43.84-18.82 103.73 25.02 133.76z m27.91-97.51c2.25-3.28 5.08-6.11 8.36-8.35l270.49-184.88c21.81-14.91 50.53-14.92 72.35-0.03L818.31 325.2c14.63 9.98 18.4 29.94 8.41 44.57a32.22 32.22 0 0 1-8.39 8.4l-270.9 185.28c-21.85 14.94-50.63 14.93-72.46-0.02L204.5 378.16c-14.62-10.02-18.35-29.98-8.34-44.59z" p-id="19682"></path><path d="M139.96 570.4L437.9 777.75c44.04 30.66 102.52 30.66 146.57 0L882.4 570.4c14.54-10.12 18.12-30.11 8-44.65-10.12-14.54-30.11-18.12-44.64-8L547.83 725.1c-22.02 15.32-51.26 15.32-73.28 0L176.6 517.75c-14.53-10.12-34.52-6.53-44.64 8-10.12 14.54-6.54 34.53 8 44.65z" p-id="19683"></path><path d="M845.85 677.97L547.84 883.82c-21.93 15.14-50.94 15.15-72.87 0.02L176.5 677.96c-14.58-10.06-34.56-6.39-44.61 8.19-10.06 14.58-6.39 34.56 8.19 44.61l298.47 205.89c43.87 30.27 101.9 30.25 145.75-0.05l298.01-205.86c14.57-10.07 18.23-30.04 8.16-44.62-10.07-14.57-30.05-18.22-44.62-8.15z" p-id="19684"></path></svg>