<?xml version="1.0" standalone="no"?><!DOCTYPE svg PUBLIC "-//W3C//DTD SVG 1.1//EN" "http://www.w3.org/Graphics/SVG/1.1/DTD/svg11.dtd"><svg t="1586177821433" class="icon" viewBox="0 0 1024 1024" version="1.1" xmlns="http://www.w3.org/2000/svg" p-id="39535" xmlns:xlink="http://www.w3.org/1999/xlink" width="400" height="400"><defs><style type="text/css"></style></defs><path d="M0.533138 329.181406l0 620.485328c0 34.338332 27.784608 62.388755 61.864175 62.388755L264.769344 1012.055488 264.769344 266.267065 63.706245 266.267065C28.842326 266.267065 0.533138 294.57726 0.533138 329.181406L0.533138 329.181406zM150.214597 355.391268c-4.193618-4.191604-9.439417-6.025117-15.989113-6.025117-4.459432 0-8.12847 1.044125-11.272929 3.144458-3.145465 2.094292-5.505571 4.714171-7.342104 8.123436-1.833512 3.410272-3.144458 7.081325-3.928811 11.011142-0.784353 3.928811-1.04916 8.12545-1.04916 12.059295L81.795692 383.704483c-0.264807-8.649023 0.786366-16.5147 2.885693-23.853783 2.360106-7.34009 5.765344-13.893814 10.219742-19.400393 4.459432-5.504564 10.224776-9.699189 17.03928-12.843648 6.814504-3.145465 14.680181-4.720212 23.595018-4.720212 6.814504 0 13.369235 1.04916 19.399386 3.145465 6.289924 2.099326 11.530688 5.244792 16.248886 9.17461 4.721219 3.934852 8.390257 8.914837 11.011142 14.680181 2.885693 5.770378 4.195632 12.325109 4.195632 19.6652 0 7.60087-1.308932 14.154594-3.671052 19.395358-2.359099 5.503557-5.504564 10.223769-9.434382 14.419401-3.934852 4.195632-8.390257 8.124443-13.369235 11.534715-4.979985 3.404231-9.96601 6.815511-15.204761 10.219742-4.979985 3.409266-9.960976 7.081325-14.944988 10.750363-4.715177 3.934852-9.17461 8.38925-12.844655 13.369235l70.252418 0 0 26.213889L78.386426 475.454606c0-8.648016 1.310946-16.254927 3.670045-22.803617 2.360106-6.294958 5.770378-12.060302 9.96601-17.304087 4.194625-4.980991 9.17461-9.701203 14.938947-13.895828 5.769371-4.188584 11.794488-8.65003 18.089446-13.104427 3.145465-2.360106 6.814504-4.720212 10.485556-7.079311 3.669038-2.355072 7.074276-4.979985 9.959969-7.860643 3.145465-2.884686 5.505571-6.029144 7.603891-9.700196 2.095299-3.669038 3.145465-7.604897 3.145465-12.319068C156.504521 365.090457 154.411236 359.585893 150.214597 355.391268L150.214597 355.391268zM150.214597 355.391268" p-id="39536"></path><path d="M628.097777 16.446233 380.636044 16.446233c-34.079566 0-61.863168 28.049415-61.863168 62.648527l0 933.48128 371.447841 0L690.220717 391.304346 690.220717 79.093753C689.961951 44.495648 662.172309 16.446233 628.097777 16.446233L628.097777 16.446233zM528.48399 223.272661l-30.149748 0 0-97.25368-37.224025 0L461.110217 103.214357c5.245798 0.259773 10.223769-0.259773 15.204761-1.04916 4.980991-1.046139 9.17461-2.620885 13.109462-4.979985 3.928811-2.361113 7.07327-5.506578 9.958962-9.175616 2.619879-3.929818 4.456412-8.65003 5.245798-14.418394l23.85479 0L528.48399 223.272661 528.48399 223.272661zM528.48399 223.272661" p-id="39537"></path><path d="M945.021534 463.659111 743.960449 463.659111l0 548.915922 202.371024 0c34.080573 0 61.864175-28.044381 61.864175-62.388755L1008.195648 527.091991C1008.196655 492.228072 979.88646 463.659111 945.021534 463.659111L945.021534 463.659111zM926.932087 648.201469c-3.143452 6.029144-7.07327 11.274943-12.319068 15.469568-4.978978 4.194625-11.009129 7.34009-17.56386 9.434382-6.549697 2.100333-13.630014 3.145465-20.704291 3.145465-8.390257 0-15.995154-1.310946-22.808651-3.671052-6.815511-2.361113-12.579848-6.030151-17.560839-10.484549-4.719205-4.720212-8.654057-10.224776-11.273936-17.040287s-3.929818-14.414367-3.670045-23.064396l28.575002 0c0.259773 3.929818 0.784353 7.860643 1.833512 11.529681 1.051173 3.670045 2.885693 6.819538 4.980991 9.440424 2.094292 2.619879 4.720212 4.720212 7.86467 6.289924 3.145465 1.574746 7.075283 2.360106 11.269908 2.360106 6.814504 0 12.584882-2.095299 17.305094-6.289924 4.714171-4.195632 7.074276-9.963996 7.074276-17.306101 0-5.764337-1.050167-9.959969-3.405238-13.104427-2.099326-2.884686-4.985019-5.244792-8.38925-6.554731-3.411279-1.310946-7.080318-2.095299-11.011142-2.360106-3.934852-0.26078-7.865677-0.26078-11.534715-0.26078l0-21.494684c3.145465 0.259773 6.815511 0.259773 10.484549 0 3.671052-0.265814 7.080318-1.051173 10.224776-2.361113 3.145465-1.309939 5.766351-3.409266 7.865677-5.768365 2.094292-2.620885 3.145465-6.025117 3.145465-10.219742 0-6.555738-2.100333-11.274943-6.290931-14.680181-4.193618-3.410272-9.173603-5.244792-14.679174-5.244792-7.604897 0-13.370241 2.619879-17.305094 7.605904-3.928811 4.978978-5.765344 11.529681-5.504564 19.134579l-28.569968 0c0.259773-7.604897 1.570719-14.680181 4.189591-20.970105 2.360106-6.294958 6.029144-11.800529 10.49059-16.254927 4.454398-4.455405 9.694155-8.124443 15.989113-10.484549 6.289924-2.619879 13.105434-3.671052 20.709325-3.671052 6.02411 0 11.795495 0.785359 17.824639 2.619879 6.029144 1.835526 11.268901 4.455405 15.99012 8.12545 4.720212 3.670045 8.65003 7.86467 11.534715 13.110469 2.884686 5.239757 4.454398 11.009129 4.454398 17.824639 0 7.339084-1.834519 13.629007-5.239757 19.134579-3.409266 5.505571-8.655064 9.440424-15.72934 11.273936l0 0.525587c8.124443 1.834519 14.680181 5.764337 19.400393 12.055268 4.715177 6.029144 7.074276 13.368228 7.074276 22.018257C931.392526 635.096034 929.81778 642.175345 926.932087 648.201469L926.932087 648.201469zM926.932087 648.201469" p-id="39538"></path></svg>