?xml version="1.0" standalone="no"?><!DOCTYPE svg PUBLIC "-//W3C//DTD SVG 1.1//EN" "http://www.w3.org/Graphics/SVG/1.1/DTD/svg11.dtd"><svg t="1585889578046" class="icon" viewBox="0 0 1024 1024" version="1.1" xmlns="http://www.w3.org/2000/svg" p-id="4618" xmlns:xlink="http://www.w3.org/1999/xlink" width="300" height="300"><defs><style type="text/css"></style></defs><path d="M938.666667 786.346667c0 14.933333-11.946667 26.88-26.453334 26.88h-197.973333c14.933333-3.413333 26.026667-16.64 26.026667-32.426667 0 0 0-122.026667-88.32-166.4-37.546667-18.773333-40.106667-15.36-58.88-19.626667l0.426666-52.906666s-20.48-15.786667-26.88-65.706667c-12.8 3.84-17.066667-15.36-17.92-27.306667-0.853333-11.52-7.253333-48.213333 8.106667-44.8-3.413333-24.32-5.546667-46.506667-4.266667-58.026666 3.84-40.96 43.093333-83.626667 103.253334-87.04 70.826667 2.986667 98.56 46.08 102.826666 87.04 1.28 11.52-1.28 33.706667-4.693333 58.026666 15.786667-3.413333 8.96 33.28 8.106667 44.8-0.853333 11.946667-5.12 31.146667-17.92 27.306667-6.4 49.92-26.88 65.706667-26.88 65.706667l0.426666 52.906666s12.8 7.68 67.84 30.72 37.546667 5.973333 82.346667 28.16c70.826667 34.986667 70.826667 132.693333 70.826667 132.693334z" fill="#4C4C4C" opacity=".99" p-id="4619"></path><path d="M539.733333 605.866667c60.586667 25.173333 41.386667 6.4 90.88 31.146666 77.653333 39.253333 77.653333 146.773333 77.653334 146.773334 0 16.213333-13.226667 29.44-29.013334 29.44H114.346667c-16.213333 0-29.013333-13.226667-29.013334-29.44 0 0 0-107.52 77.653334-146.773334 49.066667-24.746667 30.293333-4.693333 90.453333-29.866666 60.586667-25.173333 74.666667-34.133333 74.666667-34.133334l0.426666-58.453333s-22.613333-17.493333-29.44-72.533333c-14.08 4.266667-18.773333-16.64-19.626666-30.293334-0.853333-12.8-8.106667-52.906667 8.96-49.493333-3.413333-26.88-5.973333-51.2-4.693334-64 4.266667-44.8 47.36-92.16 113.493334-95.573333 77.653333 3.413333 108.373333 50.346667 113.066666 95.573333 1.28 12.8-1.28 37.12-5.12 64 17.066667-3.413333 9.813333 36.693333 8.96 49.493333-0.853333 13.226667-5.546667 34.133333-19.626666 29.866667-7.253333 54.613333-29.866667 72.106667-29.866667 72.106667l0.426667 58.026666c0.426667 0.853333 14.506667 8.96 74.666666 34.133334z" fill="#4C4C4C" opacity=".99" p-id="4620"></path></svg>
