<?xml version="1.0" standalone="no"?><!DOCTYPE svg PUBLIC "-//W3C//DTD SVG 1.1//EN" "http://www.w3.org/Graphics/SVG/1.1/DTD/svg11.dtd"><svg t="1586177462044" class="icon" viewBox="0 0 1024 1024" version="1.1" xmlns="http://www.w3.org/2000/svg" p-id="33032" xmlns:xlink="http://www.w3.org/1999/xlink" width="400" height="400"><defs><style type="text/css"></style></defs><path d="M1002.24 741.12l-232.789333-232.533333 212.309333-212.48a80.341333 80.341333 0 0 0 23.765333-53.76 71.637333 71.637333 0 0 0-21.077333-54.186667L835.925333 39.253333a72.149333 72.149333 0 0 0-51.541333-20.906666 79.573333 79.573333 0 0 0-56.490667 23.893333l-88.405333 88.32s-0.256 0-0.256 0.426667h-0.213333l-123.392 123.306666L282.922667 21.76a74.581333 74.581333 0 0 0-105.301334 0L21.717333 177.493333A75.050667 75.050667 0 0 0 0 230.4a74.069333 74.069333 0 0 0 21.717333 52.48l232.789334 232.533333-176.384 176.64a26.069333 26.069333 0 0 0-7.936 17.066667l-41.984 255.573333a1.962667 1.962667 0 0 1 0 0.853334v0.426666a3.413333 3.413333 0 0 0 0 0.853334v4.266666a26.624 26.624 0 0 0 0.810666 5.12v0.426667a9.685333 9.685333 0 0 1 0.426667 1.706667 25.6 25.6 0 0 0 20.949333 17.493333H51.2c1.28 0 2.389333 0.426667 3.626667 0.426667s2.176-0.426667 3.2-0.426667h1.109333l258.389333-42.24a27.989333 27.989333 0 0 0 15.957334-9.386667l174.933333-174.933333 232.661333 232.96a74.581333 74.581333 0 0 0 105.301334 0l155.904-155.733333a74.794667 74.794667 0 0 0-0.042667-105.386667zM765.824 80.213333a26.709333 26.709333 0 0 1 18.474667-8.106666 18.858667 18.858667 0 0 1 13.44 5.546666l148.778666 148.48a18.304 18.304 0 0 1 5.205334 14.506667 26.197333 26.197333 0 0 1-8.021334 17.493333l-69.632 69.546667-177.877333-177.92zM59.776 244.906667a20.48 20.48 0 0 1 0-29.013334L215.68 59.733333a20.864 20.864 0 0 1 29.226667 0l232.533333 232.96-185.002667 184.746667z m251.136 290.133333l0.682667-0.426667 223.146666-223.146666a7.253333 7.253333 0 0 0 1.92-2.133334l121.514667-121.6 177.834667 177.92-123.52 123.733334-223.061334 223.146666-176.256 176.213334-177.877333-177.92 175.829333-175.786667z m-195.754667 232.106667l141.738667 141.653333-169.6 27.733333 27.861333-169.386666z m849.066667 40.96l-155.776 156.16a20.864 20.864 0 0 1-29.226667 0l-232.789333-232.96 78.464-78.506667 106.666667-106.666667 232.789333 232.96a20.48 20.48 0 0 1 0 29.013334z m-558.933333-152.746667a27.605333 27.605333 0 0 0 19.029333-8.106667l217.386667-217.173333a27.648 27.648 0 0 0 7.893333-19.2 25.6 25.6 0 0 0-7.893333-18.773333 26.368 26.368 0 0 0-38.058667 0l-217.6 217.173333a27.52 27.52 0 0 0-7.936 19.2 26.581333 26.581333 0 0 0 7.808 18.773333 27.050667 27.050667 0 0 0 19.413333 8.106667z" fill="#2c2c2c" p-id="33033"></path></svg>